<?xml version="1.0" encoding="UTF-8" standalone="no"?>
<svg
   width="1129"
   height="663"
   viewBox="0 0 1129 663"
   version="1.1"
   id="svg14559"
   sodipodi:docname="agape_loog.svg"
   inkscape:version="1.2 (dc2aeda, 2022-05-15)"
   xmlns:inkscape="http://www.inkscape.org/namespaces/inkscape"
   xmlns:sodipodi="http://sodipodi.sourceforge.net/DTD/sodipodi-0.dtd"
   xmlns="http://www.w3.org/2000/svg"
   xmlns:svg="http://www.w3.org/2000/svg"
   xmlns:rdf="http://www.w3.org/1999/02/22-rdf-syntax-ns#"
   xmlns:cc="http://creativecommons.org/ns#"
   xmlns:dc="http://purl.org/dc/elements/1.1/">
  <defs
     id="defs14563" />
  <sodipodi:namedview
     id="namedview14561"
     pagecolor="#ffffff"
     bordercolor="#000000"
     borderopacity="0.25"
     inkscape:showpageshadow="2"
     inkscape:pageopacity="0.0"
     inkscape:pagecheckerboard="0"
     inkscape:deskcolor="#d1d1d1"
     showgrid="false"
     inkscape:zoom="0.86713906"
     inkscape:cx="544.31869"
     inkscape:cy="330.97344"
     inkscape:current-layer="svg14559" />
  <title
     id="title14483">Focus on What Matters</title>
  <path
     d="m 994.55762,320.47287 h -75.42308 v -53.24005 c 0,-6.07351 -4.9536,-11.02711 -11.02715,-11.02711 -6.07351,0 -11.02708,4.9536 -11.02708,11.02711 v 53.24005 h -30.75583 v -98.12372 c 0,-6.07351 -4.95352,-11.02707 -11.02703,-11.02707 -6.07355,0 -11.02715,4.95356 -11.02715,11.02707 v 98.12372 h -30.7558 v -98.12372 c 0,-6.07351 -4.9536,-11.02707 -11.02703,-11.02707 -6.07359,0 -11.02719,4.95356 -11.02719,11.02707 l -0.0389,98.12372 H 760.66563 V 130.90566 c 0,-6.0735 -4.95371,-11.0271 -11.02715,-11.0271 -6.07358,0 -11.02718,4.9536 -11.02718,11.0271 V 320.47287 H 707.85414 V 130.90566 c 0,-6.0735 -4.9536,-11.0271 -11.02715,-11.0271 -6.07347,0 -11.02707,4.9536 -11.02707,11.0271 v 189.56721 h -30.75564 v -98.12372 c 0,-6.07351 -4.95371,-11.02707 -11.02715,-11.02707 -6.07359,0 -11.02719,4.95356 -11.02719,11.02707 v 98.12372 h -31.0142 v -98.12372 c 0,-6.07351 -4.9536,-11.02707 -11.02707,-11.02707 -6.07359,0 -11.02715,4.95356 -11.02715,11.02707 v 98.12372 h -30.84174 v -53.24005 c 0,-6.07351 -4.95356,-11.02711 -11.02715,-11.02711 -6.07347,0 -11.02715,4.9536 -11.02715,11.02711 v 53.24005 H 496.2698 v -98.12372 c 0,-6.07351 -4.9536,-11.02707 -11.02715,-11.02707 -6.07347,0 -11.02707,4.95356 -11.02707,11.02707 l -0.0393,98.12372 h -30.75573 v -98.12372 c 0,-6.07351 -4.95356,-11.02707 -11.02703,-11.02707 -6.07349,0 -11.02718,4.95356 -11.02718,11.02707 v 98.12372 H 390.61055 V 130.90566 c 0,-6.0735 -4.95359,-11.0271 -11.02716,-11.0271 -6.07347,0 -11.02716,4.9536 -11.02716,11.0271 v 189.56721 h -30.75569 v -98.12372 c 0,-6.07351 -4.95359,-11.02707 -11.02716,-11.02707 -6.07346,0 -11.02711,4.95356 -11.02711,11.02707 v 98.12372 h -30.75572 v -98.12372 c 0,-6.07351 -4.95359,-11.02707 -11.0271,-11.02707 -6.07351,0 -11.02715,4.95356 -11.02715,11.02707 l -0.0411,98.12372 h -30.75573 v -53.24005 c 0,-6.07351 -4.95363,-11.02711 -11.02715,-11.02711 -6.0735,0 -11.0271,4.9536 -11.0271,11.02711 v 53.24005 h -75.63964 c -6.07352,0 -11.02712,4.9536 -11.02712,11.02715 0,6.07351 4.9536,11.02711 11.02712,11.02711 h 75.42328 v 53.24001 c 0,6.07352 4.9536,11.02712 11.02711,11.02712 6.07355,0 11.02715,-4.9536 11.02715,-11.02712 v -53.24001 h 30.75572 v 98.12368 c 0,6.07351 4.9536,11.02711 11.02711,11.02711 6.07355,0 11.02715,-4.9536 11.02715,-11.02711 v -98.12368 h 30.75572 v 98.12368 c 0,6.07351 4.9536,11.02711 11.02709,11.02711 6.07356,0 11.02715,-4.9536 11.02715,-11.02711 l 0.0395,-98.12368 h 30.75578 v 189.5672 c 0,6.07351 4.95359,11.02711 11.02706,11.02711 6.07357,0 11.02716,-4.9536 11.02716,-11.02711 v -189.5672 h 30.75578 v 98.12368 c 0,6.07351 4.95359,11.02711 11.02708,11.02711 6.07355,0 11.02715,-4.9536 11.02715,-11.02711 v -98.12368 h 30.7558 v 98.12368 c 0,6.07351 4.95356,11.02711 11.02703,11.02711 6.07348,0 11.02708,-4.9536 11.02708,-11.02711 v -98.12368 h 30.75579 v 53.24001 c 0,6.07352 4.95356,11.02712 11.02715,11.02712 6.07347,0 11.02707,-4.9536 11.02707,-11.02712 v -53.24001 h 30.75576 v 98.12368 c 0,6.07351 4.9536,11.02711 11.02715,11.02711 6.07347,0 11.02707,-4.9536 11.02707,-11.02711 l 0.0393,-98.12368 h 30.75579 v 98.12368 c 0,6.07351 4.95356,11.02711 11.02719,11.02711 6.07343,0 11.02703,-4.9536 11.02703,-11.02711 v -98.12368 h 30.75576 v 189.5672 c 0,6.07351 4.95364,11.02711 11.02719,11.02711 6.07343,0 11.02703,-4.9536 11.02703,-11.02711 v -189.5672 h 30.75568 v 189.5672 c 0,6.07351 4.9536,11.02711 11.02715,11.02711 6.07359,0 11.02719,-4.9536 11.02719,-11.02711 v -189.5672 h 30.75568 v 98.12368 c 0,6.07351 4.95356,11.02711 11.02719,11.02711 6.07343,0 11.02711,-4.9536 11.02711,-11.02711 l 0.0389,-98.12368 h 30.75575 v 98.12368 c 0,6.07351 4.9536,11.02711 11.02708,11.02711 6.07354,0 11.02715,-4.9536 11.02715,-11.02711 v -98.12368 h 30.75579 v 53.24001 c 0,6.07352 4.9536,11.02712 11.02707,11.02712 6.07348,0 11.02708,-4.9536 11.02708,-11.02712 v -53.24001 h 75.98351 c 6.07371,0 11.02741,-4.9536 11.02741,-11.02711 0,-6.07355 -4.9537,-11.02715 -11.02741,-11.02715 z"
     id="path527"
     style="fill:#808080;stroke-width:11.027" />
  <metadata
     id="metadata14845">
    <rdf:RDF>
      <cc:Work
         rdf:about="">
        <dc:title>Focus on What Matters</dc:title>
      </cc:Work>
    </rdf:RDF>
  </metadata>
</svg>
