<?xml version="1.0" encoding="UTF-8" standalone="no"?>
<!-- Created with Inkscape (http://www.inkscape.org/) -->

<svg
   width="1024"
   height="1024"
   viewBox="0 0 270.93333 270.93333"
   version="1.1"
   id="svg5"
   inkscape:version="1.2 (dc2aeda, 2022-05-15)"
   sodipodi:docname="agape.svg"
   inkscape:export-filename="agape.png"
   inkscape:export-xdpi="96"
   inkscape:export-ydpi="96"
   xmlns:inkscape="http://www.inkscape.org/namespaces/inkscape"
   xmlns:sodipodi="http://sodipodi.sourceforge.net/DTD/sodipodi-0.dtd"
   xmlns="http://www.w3.org/2000/svg"
   xmlns:svg="http://www.w3.org/2000/svg"
   xmlns:rdf="http://www.w3.org/1999/02/22-rdf-syntax-ns#"
   xmlns:cc="http://creativecommons.org/ns#">
  <sodipodi:namedview
     id="namedview7"
     pagecolor="#ffffff"
     bordercolor="#000000"
     borderopacity="0.25"
     inkscape:showpageshadow="2"
     inkscape:pageopacity="0.0"
     inkscape:pagecheckerboard="0"
     inkscape:deskcolor="#d1d1d1"
     inkscape:document-units="mm"
     showgrid="true"
     inkscape:zoom="0.78320312"
     inkscape:cx="489.01746"
     inkscape:cy="512"
     inkscape:current-layer="layer1">
    <inkscape:grid
       type="xygrid"
       id="grid182"
       units="mm"
       empspacing="4"
       spacingx="11.25"
       spacingy="11.25"
       visible="false"
       originx="0"
       originy="0" />
    <inkscape:grid
       type="xygrid"
       id="grid220"
       color="#00dc55"
       opacity="0.33333333"
       empcolor="#009a47"
       empopacity="0.30196078"
       empspacing="4"
       spacingx="9.5000003"
       spacingy="9.5000003"
       originx="-4.7500001"
       originy="-4.7500001"
       units="mm" />
  </sodipodi:namedview>
  <defs
     id="defs2" />
  <g
     inkscape:label="Layer 1"
     inkscape:groupmode="layer"
     id="layer1">
    <path
       d="m 249.25275,132.54907 h -19.95569 v -14.08643 c 0,-1.60695 -1.31064,-2.91759 -2.9176,-2.91759 -1.60695,0 -2.91758,1.31064 -2.91758,2.91759 v 14.08643 h -8.13748 v -25.9619 c 0,-1.60695 -1.31062,-2.91758 -2.91757,-2.91758 -1.60696,0 -2.9176,1.31063 -2.9176,2.91758 v 25.9619 h -8.13747 v -25.9619 c 0,-1.60695 -1.31064,-2.91758 -2.91757,-2.91758 -1.60697,0 -2.91761,1.31063 -2.91761,2.91758 l -0.0103,25.9619 h -8.13745 V 82.392746 c 0,-1.606947 -1.31067,-2.917587 -2.9176,-2.917587 -1.60697,0 -2.91761,1.31064 -2.91761,2.917587 v 50.156324 h -8.13783 V 82.392746 c 0,-1.606947 -1.31064,-2.917587 -2.9176,-2.917587 -1.60694,0 -2.91758,1.31064 -2.91758,2.917587 v 50.156324 h -8.13743 v -25.9619 c 0,-1.60695 -1.31067,-2.91758 -2.9176,-2.91758 -1.60697,0 -2.91761,1.31063 -2.91761,2.91758 v 25.9619 h -8.20584 v -25.9619 c 0,-1.60695 -1.31064,-2.91758 -2.91758,-2.91758 -1.60697,0 -2.9176,1.31063 -2.9176,2.91758 v 25.9619 h -8.16021 v -14.08643 c 0,-1.60695 -1.31063,-2.91759 -2.9176,-2.91759 -1.60694,0 -2.9176,1.31064 -2.9176,2.91759 v 14.08643 h -8.13744 v -25.9619 c 0,-1.60695 -1.31064,-2.91758 -2.9176,-2.91758 -1.60694,0 -2.91758,1.31063 -2.91758,2.91758 l -0.0104,25.9619 h -8.13745 v -25.9619 c 0,-1.60695 -1.31063,-2.91758 -2.91757,-2.91758 -1.606944,0 -2.917606,1.31063 -2.917606,2.91758 v 25.9619 H 89.458423 V 82.392746 c 0,-1.606947 -1.310637,-2.917587 -2.917603,-2.917587 -1.606939,0 -2.917603,1.31064 -2.917603,2.917587 v 50.156324 h -8.137441 v -25.9619 c 0,-1.60695 -1.310637,-2.91758 -2.917603,-2.91758 -1.606936,0 -2.917589,1.31063 -2.917589,2.91758 v 25.9619 h -8.137451 v -25.9619 c 0,-1.60695 -1.310639,-2.91758 -2.917587,-2.91758 -1.606949,0 -2.9176,1.31063 -2.9176,2.91758 l -0.01088,25.9619 h -8.137453 v -14.08643 c 0,-1.60695 -1.31065,-2.91759 -2.9176,-2.91759 -1.606948,0 -2.917588,1.31064 -2.917588,2.91759 v 14.08643 H 21.681436 c -1.60695,0 -2.91759,1.31064 -2.91759,2.9176 0,1.60695 1.31064,2.91759 2.91759,2.91759 h 19.955743 v 14.08642 c 0,1.60695 1.31064,2.91759 2.91759,2.91759 1.606961,0 2.9176,-1.31064 2.9176,-2.91759 v -14.08642 h 8.137451 v 25.96189 c 0,1.60695 1.31064,2.91759 2.917589,2.91759 1.606959,0 2.917599,-1.31064 2.917599,-2.91759 v -25.96189 h 8.137452 v 25.96189 c 0,1.60695 1.31064,2.91759 2.917583,2.91759 1.606965,0 2.917602,-1.31064 2.917602,-2.91759 l 0.01044,-25.96189 h 8.137467 v 50.15632 c 0,1.60695 1.310637,2.91759 2.917576,2.91759 1.606966,0 2.917603,-1.31064 2.917603,-2.91759 v -50.15632 h 8.137466 v 25.96189 c 0,1.60695 1.310637,2.91759 2.917583,2.91759 1.60696,0 2.9176,-1.31064 2.9176,-2.91759 v -25.96189 h 8.13747 v 25.96189 c 0,1.60695 1.31063,2.91759 2.91757,2.91759 1.60694,0 2.91758,-1.31064 2.91758,-2.91759 v -25.96189 h 8.13747 v 14.08642 c 0,1.60695 1.31063,2.91759 2.9176,2.91759 1.60694,0 2.91758,-1.31064 2.91758,-2.91759 v -14.08642 h 8.13746 v 25.96189 c 0,1.60695 1.31064,2.91759 2.9176,2.91759 1.60694,0 2.91758,-1.31064 2.91758,-2.91759 l 0.0104,-25.96189 h 8.13747 v 25.96189 c 0,1.60695 1.31063,2.91759 2.91761,2.91759 1.60693,0 2.91757,-1.31064 2.91757,-2.91759 v -25.96189 h 8.13746 v 50.15632 c 0,1.60695 1.31065,2.91759 2.91761,2.91759 1.60693,0 2.91757,-1.31064 2.91757,-2.91759 v -50.15632 h 8.13744 v 50.15632 c 0,1.60695 1.31064,2.91759 2.9176,2.91759 1.60697,0 2.91761,-1.31064 2.91761,-2.91759 v -50.15632 h 8.13744 v 25.96189 c 0,1.60695 1.31063,2.91759 2.91761,2.91759 1.60693,0 2.91759,-1.31064 2.91759,-2.91759 l 0.0103,-25.96189 h 8.13746 v 25.96189 c 0,1.60695 1.31064,2.91759 2.91758,2.91759 1.60696,0 2.9176,-1.31064 2.9176,-2.91759 v -25.96189 h 8.13747 v 14.08642 c 0,1.60695 1.31064,2.91759 2.91758,2.91759 1.60694,0 2.91758,-1.31064 2.91758,-2.91759 v -14.08642 h 20.10397 c 1.60699,0 2.91768,-1.31064 2.91768,-2.91759 0,-1.60696 -1.31069,-2.9176 -2.91768,-2.9176 z"
       id="path527"
       style="stroke-width:2.91757;fill:#808080" />
  </g>
  <metadata
     id="metadata184">
    <rdf:RDF>
      <cc:Work
         rdf:about="">
        <cc:license
           rdf:resource="http://creativecommons.org/licenses/by-nc/4.0/" />
      </cc:Work>
      <cc:License
         rdf:about="http://creativecommons.org/licenses/by-nc/4.0/">
        <cc:permits
           rdf:resource="http://creativecommons.org/ns#Reproduction" />
        <cc:permits
           rdf:resource="http://creativecommons.org/ns#Distribution" />
        <cc:requires
           rdf:resource="http://creativecommons.org/ns#Notice" />
        <cc:requires
           rdf:resource="http://creativecommons.org/ns#Attribution" />
        <cc:prohibits
           rdf:resource="http://creativecommons.org/ns#CommercialUse" />
        <cc:permits
           rdf:resource="http://creativecommons.org/ns#DerivativeWorks" />
      </cc:License>
    </rdf:RDF>
  </metadata>
</svg>
